<?xml version="1.0" encoding="UTF-8"?>
<svg id="Layer_1" data-name="Layer 1" xmlns="http://www.w3.org/2000/svg" viewBox="0 0 960 960">
  <defs>
    <style>
      .cls-1, .cls-2, .cls-3, .cls-4, .cls-5, .cls-6 {
        stroke-width: 0px;
      }

      .cls-2 {
        fill: #0e120c;
      }

      .cls-2, .cls-3, .cls-5, .cls-6 {
        fill-rule: evenodd;
      }

      .cls-3 {
        fill: #f7ba00;
      }

      .cls-4 {
        fill: #fff;
      }

      .cls-5 {
        fill: #e12229;
      }

      .cls-6 {
        fill: #fe0000;
      }
    </style>
  </defs>
  <path class="cls-1" d="M615.1,437.2h32.32v5.32h-26.68v17.42h23.51v5.64h-23.51v17.76h26.68v5.1h-32.31v-51.23Z"/>
  <path class="cls-1" d="M685.31,451.02v-17.08h5.32c.05.69.15,1.36.15,2.03,0,15.12-.05,30.23.06,45.35.02,2.61-1.01,4.39-3.05,5.61-5.51,3.3-17.29,4.14-23.09-.17-3.44-2.56-5.43-5.88-6.35-9.92-1.39-6.08-1.47-12.12,1-18,2.49-5.93,7.1-8.97,13.39-9,4.11-.02,8.23.75,12.58,1.19ZM685.32,469.72c0-3.5-.08-7.01.04-10.51.05-1.5-.5-2.47-1.86-2.74-3.16-.63-6.33-1.45-9.52-1.55-4.79-.15-8.04,2.37-9.5,7-1.73,5.48-1.51,11.01.45,16.38,1.19,3.28,3.65,5.5,7.13,5.98,2.58.36,5.27.29,7.87.02,4.63-.48,5.41-1.51,5.41-6.18,0-2.8,0-5.6,0-8.41Z"/>
  <path class="cls-1" d="M615.14,499.85h5.41c0,.87,0,1.69,0,2.51,0,9.27-.1,18.55.06,27.82.05,2.74.65,5.53,1.35,8.2,1.03,3.91,3.81,6.3,7.63,7.45,3.73,1.13,7.5,1.13,11.22-.01,5.09-1.56,8.56-5.87,8.7-11.37.27-10.43.3-20.86.43-31.3.01-1.01,0-2.01,0-3.19h5.09c.04.62.12,1.29.12,1.96,0,10.36.23,20.74-.06,31.09-.24,8.47-4.42,15.84-12.86,17.87-8.34,2.01-16.4,1.67-22.61-5.5-3.61-4.17-4.51-9.34-4.61-14.56-.2-10.05-.06-20.1-.05-30.16,0-.22.1-.43.19-.83Z"/>
  <path class="cls-1" d="M809.97,467.44c0-2.35.18-4.39-.04-6.38-.33-2.98-2.12-4.87-4.99-5.77-5.27-1.66-10.23-.54-15.09,1.6-.68.3-1.32.7-2,1.07-.13-.35-.22-.48-.23-.62-.27-5.1-.05-5.4,5.02-6.68,4.55-1.14,9.18-1.71,13.8-.7,5.88,1.29,8.91,4.56,9.21,10.63.34,6.91.13,13.86.08,20.79-.02,3.34-1.87,5.64-4.89,6.66-6.46,2.18-13.1,2.57-19.62.46-5.71-1.85-7.98-6.51-7.26-12.03.94-7.17,4.61-10.8,10.76-11.3,5.16-.41,10.21-.25,15.24,2.26ZM810.05,477.33c0-1.17-.08-2.34.02-3.5.11-1.29-.34-2-1.6-2.39-4.28-1.32-8.6-1.97-13.05-1.05-3.46.72-5.78,3.25-6.01,6.49-.21,3.03,1.74,6.14,5.1,6.92,3.04.71,6.31,1.13,9.4.83,6.13-.6,6.14-.87,6.14-7.3Z"/>
  <path class="cls-1" d="M800.38,543.9c0,1.85.08,3.24-.04,4.61-.04.5-.44,1.24-.85,1.39-7.56,2.81-15.19,3.93-22.61-.24-4.94-2.78-7.04-7.72-7.45-13-.35-4.41-.08-9.03.89-13.34,2.08-9.27,10.89-12.27,18.75-11.14,9.17,1.32,12.68,8.39,13.42,16.19.14,1.45.21,2.9.33,4.6h-27.61c-1.39,6.19,3.1,14.39,11.58,14.16,4.65-.12,9.02-.87,13.59-3.22ZM775.04,527.73h21.75c-.17-6.24-3.58-10.25-9.29-10.57-7.22-.41-11.49,1.88-12.47,10.57Z"/>
  <path class="cls-1" d="M907.98,469.5c.01,5.1-.92,9.94-3.99,14.09-3.6,4.85-8.77,6.32-14.57,6.17-11.56-.29-16.3-7.79-16.69-17.93-.13-3.44.12-7.01.9-10.36,2.2-9.53,9.69-12.16,17.41-11.97,1.99.05,4.03.38,5.93.97,6.03,1.88,9.04,6.45,10.27,12.35.46,2.18.51,4.45.75,6.68ZM902.64,469.59c-.17-.03-.34-.06-.51-.1,0-.86.04-1.71,0-2.57-.31-5.96-2.51-11.9-11.07-12.28-5.31-.24-9.9,1.07-11.74,7.56-.89,3.13-1.17,6.6-.95,9.86.5,7.2,3.08,12.22,11.04,12.56,4.85.21,9.29-.93,11.32-6.53.98-2.71,1.3-5.66,1.92-8.5Z"/>
  <path class="cls-1" d="M956.28,512.82c-2.52,6.43-4.88,12.45-7.23,18.47-3.17,8.12-6.31,16.25-9.51,24.36-1.26,3.2-2.91,6.19-5.84,8.21-.94.65-1.98,1.24-3.06,1.6-5.24,1.75-6.97.34-6.36-5.1,6.15,1.21,11.06-2.5,11.48-8.75.05-.79-.33-1.65-.65-2.42-4.77-11.64-9.57-23.27-14.36-34.91-.14-.34-.27-.69-.58-1.47,2,0,3.76-.17,5.46.09.64.1,1.33,1.12,1.63,1.87,3.66,9.25,7.25,18.54,10.87,27.81.08.21.19.41.51,1.11.9-2.31,1.65-4.24,2.41-6.18,2.77-7.12,5.7-14.18,8.23-21.37.94-2.66,2.18-3.84,4.95-3.35.52.09,1.07.01,2.05.01Z"/>
  <path class="cls-1" d="M703.34,450.33h5.53c0,.9,0,1.72,0,2.55.02,7.47-.04,14.95.09,22.42.1,5.8,3.36,8.94,9.18,9.11,1.55.05,3.15.11,4.65-.21,4-.85,6.59-3.87,6.7-8.07.2-7.62.19-15.25.26-22.88,0-.92,0-1.84,0-2.9h5.3c.08.18.25.38.25.58-.05,8.95.05,17.9-.23,26.85-.18,5.76-5.27,10.82-11.47,11.66-4.71.64-9.45.63-13.79-1.81-3.97-2.23-6.26-5.78-6.4-10.18-.27-8.94-.08-17.9-.08-27.12Z"/>
  <path class="cls-1" d="M673.37,518.09v33.03h-5.41c-.05-.5-.16-1.09-.16-1.68-.01-10.59-.03-21.19.03-31.78,0-.77.41-1.98.97-2.24,6.92-3.2,14.15-4.54,21.66-2.66,5.94,1.48,8.66,4.93,8.95,12.2.34,8.62.08,17.27.08,26.1h-5.51v-2.31c0-7.01.03-14.02-.02-21.03-.01-1.62-.18-3.27-.54-4.84-.72-3.2-3.82-5.72-7.61-5.7-4.07.02-8.14.57-12.43.91Z"/>
  <path class="cls-1" d="M923.71,488.48h-5.46c0-.78,0-1.52,0-2.27,0-10.28.04-20.57-.04-30.85-.01-1.69.58-2.49,2.07-3.09,6.4-2.59,13.01-3.64,19.78-2.21,6.3,1.33,9.46,5.08,9.69,11.86.3,8.78.07,17.58.07,26.52h-5.6v-14.72c0-3.04,0-6.08,0-9.12,0-6.9-3.15-10.18-10.1-10.1-2.84.04-5.66.78-8.5,1.1-1.6.18-1.95.97-1.94,2.48.07,9.19.03,18.39.03,27.58,0,.85,0,1.71,0,2.82Z"/>
  <path class="cls-1" d="M864.7,520.26c-2.77-1.01-5.22-2.34-7.81-2.72-2.42-.36-5.03.08-7.48.54-1.8.34-3.17,1.57-3.42,3.64-.29,2.4.77,4.18,2.83,5.11,2.52,1.14,5.19,1.93,7.8,2.85.8.28,1.63.48,2.42.78,5.5,2.07,8.02,5.37,7.83,10.23-.21,5.44-3.57,9.65-9.05,10.95-5.69,1.34-11.23.66-16.45-2.01-.55-.28-1.09-1.08-1.17-1.69-.17-1.44-.05-2.91-.05-4.73,1.71.87,3.1,1.63,4.53,2.3,3.94,1.84,8.07,2.15,12.21.94,2.76-.8,4.46-3,4.41-5.37-.06-2.57-1.68-4.1-3.92-4.96-2.87-1.11-5.79-2.07-8.68-3.13-3.33-1.22-6.5-2.7-7.82-6.36-2.26-6.22,1.7-12.66,8.52-14.2,5.12-1.16,9.82-.09,14.35,2.2.46.23.86.98.91,1.53.13,1.31.04,2.64.04,4.09Z"/>
  <path class="cls-1" d="M774.99,482.46c.28,5.82.96,4.88-4.75,5.98-3.72.72-7.74.65-11.51.11-8.83-1.26-12.12-7.8-12.69-14.44-.38-4.48-.07-9.2.94-13.58,1.46-6.37,7-10.52,13.6-10.7,3.82-.11,7.65.54,11.48.82,2.54.19,3.54,1.5,3.09,4-.11.6-.02,1.23-.02,2.13-1.49-.39-2.76-.88-4.08-1.03-3.14-.36-6.33-.97-9.44-.74-5.69.43-8.97,3.38-9.81,9.37-.55,3.9-.31,8.1.52,11.96,1.08,5.03,4.38,7.21,10.67,7.44,3.93.14,7.9-.83,12-1.33Z"/>
  <path class="cls-1" d="M726.99,512.93q5.66-.36,7.69,4.54c3.78,9.01,7.59,18.01,11.54,27.4,2.47-6.04,4.8-11.74,7.13-17.44,1.66-4.07,3.44-8.1,4.89-12.24.7-2,1.71-2.69,3.7-2.39.82.12,1.68.02,2.92.02-1.69,3.98-3.24,7.64-4.8,11.31-3.62,8.52-7.27,17.03-10.82,25.58-.5,1.21-1.11,1.84-2.35,1.52-1.49-.37-3.45,1.09-4.44-1.27-5.1-12.16-10.25-24.31-15.37-36.46-.06-.13-.04-.3-.07-.57Z"/>
  <path class="cls-1" d="M903.6,517.83c0,3.07-.04,5.86,0,8.64.08,5.28.03,10.58.39,15.85.23,3.34,2.49,4.73,5.87,4.18,1.13-.19,2.24-.49,3.34-.73.11.14.28.26.28.37-.11,1.59.11,4.4-.42,4.55-2.46.7-5.22,1.2-7.69.77-5.06-.88-7.35-4.39-7.38-10.27-.03-6.85,0-13.71,0-20.56v-2.79h-6.52v-4.92h6.45v-11.01h5.61v10.84h9.91v5.08h-9.83Z"/>
  <path class="cls-1" d="M836.08,450.19h9.76v5.1h-9.66c0,.91,0,1.65,0,2.39,0,6.7,0,13.41,0,20.11,0,5.21,2.52,7.16,7.62,5.92.67-.16,1.35-.31,2.12-.49v5.56c-2.88.05-5.83.51-8.63.06-4.03-.65-6.69-4.39-6.71-8.64-.04-7.33-.01-14.65-.01-21.98,0-.85,0-1.69,0-2.78h-6.47v-5.13h6.34v-10.68h5.65v10.56Z"/>
  <path class="cls-1" d="M818.77,551.19h-5.43c-.06-.71-.15-1.37-.15-2.04,0-10.45.03-20.89-.05-31.34-.01-1.59.39-2.49,1.98-2.82,4.82-.99,9.6-2.32,14.47-2.94,3.79-.49,3.85-.1,3.77,3.78-.01.53-.09,1.06-.09,1.06-4.92.47-9.64.92-14.51,1.39v32.92Z"/>
  <path class="cls-1" d="M770.2,434.22h-3.25c0-1.64,0-3.32,0-5,0-2.96.02-5.92,0-8.88-.05-6.4-3.61-9.05-9.74-7.3q-3.58,1.03-3.58,4.72c0,5.22-.01,10.44-.03,15.66,0,.22-.11.45-.19.78h-3.12v-35.28h3.38v11.42c3.32-.29,6.42-.88,9.5-.75,3.9.17,6.78,2.92,6.98,6.83.3,5.88.08,11.79.08,17.79Z"/>
  <path class="cls-1" d="M798.68,422.63h-17.89c-.46,6.22,3.6,12.01,15.89,7.23.49,3.54.42,3.86-2.99,4.41-2.58.42-5.27.68-7.85.42-2.82-.29-5.32-1.66-6.78-4.35-2.91-5.34-2.88-10.85-.36-16.22,1.83-3.9,5.58-4.99,9.56-4.88,4.3.12,7.66,2.03,9.05,6.32.7,2.15.89,4.47,1.38,7.07ZM794.59,419.29c-.14-2.62-.82-4.84-3.17-5.92-2.72-1.25-5.63-1.28-8.17.45-1.8,1.23-2.35,3.23-2.23,5.47h13.56Z"/>
  <path class="cls-1" d="M712.16,512.93h5.31v38.19h-5.31v-38.19Z"/>
  <path class="cls-1" d="M861.73,488.48h-5.32v-38.14h5.32v38.14Z"/>
  <path class="cls-1" d="M877.49,512.93h5.29v38.13h-5.29v-38.13Z"/>
  <path class="cls-1" d="M733.82,434.22h-3.83v-29.26h-11.3v-3.27h26.34v3.1h-11.21v29.42Z"/>
  <path class="cls-1" d="M856.03,437.26h6.17v5.84h-6.17v-5.84Z"/>
  <path class="cls-1" d="M711.84,505.7v-5.76h5.87v5.76h-5.87Z"/>
  <path class="cls-1" d="M877.34,505.73v-5.78h5.91v5.78h-5.91Z"/>
  <path class="cls-5" d="M211.76,517.73c0,17.54,8.06,34.46,20.14,46.55,1.43,1.43,2.6,2.77,4.14,3.95,4.76,3.68,9.59,7.3,15.31,9.74,5.25,2.25,13.32,4.96,19.45,5.61,10.55,1.12,12.13,1.36,23.29-.87,4.14-.83,7.68-1.91,11.01-3.25,19.65-7.91,34.75-24.26,40.34-44.85,2.63-9.68,2.39-15.57,2.39-25.75,0-8.16-.54-52.13.33-56.33,1.76-8.46,8.62-11.51,17.01-11.51h85.57c8.18,0,14.37,1.24,20.49,6.1,9.92,7.87,11.74,22.55,4.13,32.78-4.76,6.41-11.75,10.07-21.54,10.07h-38.93v-35.46c-25.39,0-45.49,20.54-45.49,45.87v84.03c5.51,0,14.22-2.15,18.88-4.24,4.55-2.04,9.66-5.58,13.01-8.96,3.78-3.82,6.69-7.65,9.22-12.75,4.02-8.1,4.36-14.05,4.36-23.01h38.55c9.21,0,17.1-1.27,24.14-3.61,16.46-5.49,29.85-16.46,38.53-31.24l4.79-9.47v93.28c3.72,0,3.08-.24,5.89-.66,2.02-.31,3.22-.43,4.91-.87,5.64-1.46,10.68-3.86,15.34-7.02l6.15-5.03c.62-.62.68-.88,1.19-1.51l3.81-4.67c4.89-6.5,8.2-16.73,8.2-25.72v-143.39c-17.59,0-33.57,10.62-41.25,26.21-2.32,4.7-4.23,11.46-4.23,18.51-.91-1.04-1.46-2.93-2.31-4.63-.79-1.57-1.69-3.14-2.63-4.7-5.84-9.75-12.32-15.69-21.22-22.34-12.01-8.97-29.97-13.05-45.16-13.05h-85.19c-10.2,0-15.08.94-24.15,3.99-8.71,2.94-18.67,10.35-24.48,17.53-15.39,19-13.43,34.73-13.43,57.5v28.52c0,14.08,1.11,19.1-6.49,28.59-8.79,10.97-33.83,10-38.27-11.58-.83-4.05-.34-58.14-.34-65.19,0-16.79.96-28.8-10.11-42.31-6.32-7.72-14.15-12.79-23.89-15.43-2.95-.8-8.49-1.62-11.49-1.62v122.19Z"/>
  <g>
    <ellipse class="cls-4" cx="83.49" cy="461.82" rx="79.77" ry="78.85"/>
    <g>
      <path class="cls-3" d="M84.37,389.14c4.95,0,8.97,4.02,8.97,8.97s-4.02,8.97-8.97,8.97c-4.95,0-8.97-4.02-8.97-8.97s4.02-8.97,8.97-8.97Z"/>
      <path class="cls-6" d="M57.56,388.59l-2.18,19.04c15,4.84,18.79,22.42,19.44,43.56h7.35s0-29.1,0-29.1h3.46v29.12h7.03c1.32-19.72,4.45-37.66,20.16-43l-1.42-18.6c24.09,10.5,37.65,25.55,44.68,43.41-31.47,6.05-54.75,20.77-72.66,41.16-18.09-21.65-41.51-36.64-72-42.8,8.16-18.65,23.64-32.86,46.14-42.8Z"/>
      <path class="cls-2" d="M92.36,491.33c12.27-20.44,38.06-38.43,67.86-42.21,2.69,20.63-1.6,39.53-12.86,56.67-15.02-8.44-33.78-12.8-55-14.46Z"/>
      <path class="cls-2" d="M7.28,447.3c30.21,5.59,52.91,21.82,66.55,44.03-22.4,1.24-41.18,5.18-55.37,13.3-11.72-17.29-15.77-40.19-11.19-57.33Z"/>
      <path class="cls-2" d="M20.72,508.26c14.34-8.03,36.67-12.43,59.51-12.55v13.94c-18.21.26-36.01,4.52-46.72,12.23-5.41-4.42-9.7-9.18-12.78-13.63h0ZM80.23,513.57c-16.85.29-33.3,4.19-42.81,11.3,5.98,4.27,13.09,8.05,21.28,10.68,3.57-5.25,12.33-8.1,21.53-8.44v-13.54h0ZM80.23,531.45v7.88c-6.03-.24-11.68-1.11-16.94-2.46,2.52-3.33,9.53-5.14,16.94-5.42h0ZM85.02,495.75c22,.46,43.98,4.92,59.29,13.96-3.76,4.78-8.04,9.2-12.85,13.1-11.24-8.49-28.75-12.71-46.44-13.13v-13.93h0ZM127.73,525.64c-9.91-7.77-26.2-11.66-42.71-12.05v13.57c9.01.52,17.65,3.47,21.49,8.94,7.87-2.39,14.95-5.99,21.22-10.46h0ZM101.9,537.35c-5.29,1.24-10.92,1.96-16.87,2.05v-7.92c7.57.37,14.65,2.33,16.87,5.87Z"/>
    </g>
  </g>
</svg>